<?xml version="1.0" encoding="UTF-8" standalone="no"?>
<!DOCTYPE svg PUBLIC "-//W3C//DTD SVG 1.1//EN" "http://www.w3.org/Graphics/SVG/1.1/DTD/svg11.dtd">
<svg width="100%" height="100%" viewBox="0 0 175 35" version="1.1" xmlns="http://www.w3.org/2000/svg" xmlns:xlink="http://www.w3.org/1999/xlink" xml:space="preserve" xmlns:serif="http://www.serif.com/" style="fill-rule:evenodd;clip-rule:evenodd;stroke-linejoin:round;stroke-miterlimit:2;">
    <path d="M142.109,8.101C139.31,8.101 136.811,9.244 135.012,11.133L122.015,23.309C120.816,24.403 119.316,24.999 117.766,24.949L117.466,24.949C114.018,24.701 111.219,21.868 110.968,18.439C110.818,16.451 111.518,14.562 112.868,13.121C114.217,11.68 116.067,10.884 118.066,10.884C119.716,10.884 121.365,11.481 122.615,12.524C123.215,13.021 124.114,12.972 124.614,12.375C125.114,11.779 125.064,10.884 124.464,10.387C122.664,8.896 120.416,8.051 118.066,8.051C115.317,8.051 112.718,9.195 110.819,11.183C108.919,13.22 107.969,15.805 108.169,18.588C108.519,23.409 112.418,27.335 117.267,27.683L117.967,27.683C120.116,27.683 122.315,26.788 123.965,25.248L132.312,17.445L132.312,17.842C132.312,23.26 136.761,27.683 142.209,27.683C143.959,27.683 145.709,27.236 147.207,26.341C147.857,25.943 148.108,25.099 147.708,24.403C147.308,23.757 146.457,23.508 145.758,23.906C144.659,24.552 143.459,24.85 142.159,24.85C138.261,24.85 135.062,21.719 135.062,17.793C135.062,15.954 135.811,14.264 136.96,12.972L137.161,12.773C137.211,12.723 137.211,12.723 137.26,12.674C138.51,11.481 140.26,10.735 142.109,10.735C146.008,10.735 149.207,13.866 149.207,17.793L149.207,26.242C149.207,27.037 149.857,27.633 150.607,27.633C151.407,27.633 152.006,26.987 152.006,26.242L152.006,17.793C152.006,12.524 147.557,8.101 142.109,8.101Z" style="fill-rule:nonzero;"/>
    <path d="M165.103,8.101C162.754,8.101 160.605,8.896 158.855,10.338L158.855,9.642C158.855,8.847 158.205,8.25 157.455,8.25C156.656,8.25 156.055,8.896 156.055,9.642L156.055,33.498C156.055,34.293 156.706,34.889 157.455,34.889C158.255,34.889 158.855,34.243 158.855,33.498L158.855,25.546C160.605,26.987 162.803,27.782 165.103,27.782C170.552,27.782 175,23.359 175,17.942C174.95,12.524 170.552,8.101 165.103,8.101ZM165.103,24.949C163.253,24.949 161.504,24.254 160.205,23.011C159.654,22.464 159.205,21.868 158.855,21.222L158.855,14.562C158.955,14.363 159.205,14.015 159.455,13.667C160.804,11.878 162.853,10.835 165.103,10.835C169.002,10.835 172.201,13.966 172.201,17.892C172.151,21.818 169.002,24.949 165.103,24.949Z" style="fill-rule:nonzero;"/>
    <path d="M14.946,27.683L9.347,27.683C4.199,27.683 0,23.508 0,18.389L0,1.392C0,0.596 0.65,0 1.4,0C2.149,0 2.799,0.646 2.799,1.392L2.799,18.389C2.799,21.967 5.748,24.9 9.347,24.9L14.896,24.9C15.695,24.9 16.295,25.546 16.295,26.291C16.345,27.037 15.695,27.683 14.946,27.683Z" style="fill-rule:nonzero;"/>
    <path d="M26.343,27.683C20.894,27.683 16.396,23.26 16.396,17.793C16.396,12.326 20.845,7.902 26.343,7.902C28.992,7.902 31.491,8.946 33.341,10.785C33.891,11.332 33.891,12.226 33.341,12.773L22.644,23.409C22.544,23.508 22.444,23.558 22.344,23.657C23.494,24.403 24.843,24.85 26.343,24.85C27.892,24.85 29.342,24.353 30.542,23.458C31.191,23.011 32.041,23.11 32.491,23.757C32.941,24.403 32.841,25.248 32.191,25.695C30.492,26.987 28.442,27.683 26.343,27.683ZM26.343,10.735C22.444,10.735 19.245,13.916 19.245,17.793C19.245,19.234 19.695,20.626 20.445,21.769C20.495,21.669 20.595,21.57 20.695,21.47L30.292,11.928C29.092,11.133 27.742,10.735 26.343,10.735Z" style="fill-rule:nonzero;"/>
    <path d="M53.285,8.2C51.285,8.2 49.436,9.145 48.286,10.586C47.086,9.095 45.287,8.151 43.238,8.151C41.688,8.151 40.238,8.697 39.139,9.642C38.889,9.443 38.589,9.294 38.239,9.294C37.439,9.294 36.839,9.94 36.839,10.685L36.839,26.291C36.839,27.086 37.489,27.683 38.239,27.683C38.989,27.683 39.639,27.037 39.639,26.291L39.639,14.562C39.639,12.574 41.288,10.983 43.238,10.983C45.237,10.983 46.836,12.624 46.836,14.562L46.836,26.241C46.836,27.037 47.486,27.633 48.236,27.633C49.036,27.633 49.636,26.987 49.636,26.241L49.636,14.612C49.636,12.624 51.285,11.033 53.235,11.033C55.234,11.033 56.834,12.673 56.834,14.612L56.834,26.291C56.834,27.086 57.483,27.683 58.233,27.683C59.033,27.683 59.633,27.037 59.633,26.291L59.633,14.612C59.733,11.083 56.834,8.2 53.285,8.2Z" style="fill-rule:nonzero;"/>
    <path d="M71.678,8.201C69.679,8.201 67.829,8.946 66.43,10.189C66.23,9.692 65.73,9.294 65.13,9.294C64.33,9.294 63.73,9.94 63.73,10.686L63.73,26.291C63.73,27.087 64.38,27.683 65.13,27.683C65.93,27.683 66.53,27.037 66.53,26.291L66.53,16.053C66.53,13.22 68.829,10.934 71.678,10.934C74.527,10.934 76.827,13.22 76.827,16.053L76.827,26.291C76.827,27.087 77.476,27.683 78.226,27.683C79.026,27.683 79.626,27.037 79.626,26.291L79.626,16.103C79.626,11.729 76.077,8.201 71.678,8.201Z" style="fill-rule:nonzero;"/>
    <path d="M100.022,27.683L92.874,27.683C92.075,27.683 91.474,27.037 91.474,26.291C91.474,25.496 92.124,24.899 92.874,24.899L100.022,24.899C100.072,24.899 101.371,24.899 102.171,24.104C102.621,23.657 102.871,22.961 102.871,22.067C102.871,21.172 102.621,20.476 102.171,20.029C101.371,19.234 100.072,19.234 100.072,19.234L96.123,19.234C95.823,19.234 93.574,19.184 91.975,17.594C91.025,16.649 90.525,15.357 90.525,13.816C90.525,9.691 94.174,8.3 96.073,8.151L103.072,8.151C103.871,8.151 104.471,8.797 104.471,9.542C104.471,10.288 103.821,10.934 103.072,10.934L96.273,10.934C95.723,10.983 93.374,11.381 93.374,13.816C93.374,14.612 93.574,15.208 94.024,15.606C94.824,16.401 96.173,16.45 96.223,16.45L100.172,16.45C100.372,16.45 102.621,16.45 104.271,18.041C105.32,19.035 105.82,20.377 105.82,22.067C105.82,23.756 105.32,25.098 104.271,26.092C102.571,27.583 100.472,27.683 100.022,27.683Z" style="fill-rule:nonzero;"/>
    <path d="M85.024,27.683C84.224,27.683 83.625,27.037 83.625,26.291L83.625,9.89C83.625,9.095 84.274,8.499 85.024,8.499C85.774,8.499 86.424,9.145 86.424,9.89L86.424,26.291C86.424,27.037 85.824,27.683 85.024,27.683Z" style="fill-rule:nonzero;"/>
    <path d="M83.175,5.02C82.975,5.02 82.726,4.92 82.576,4.771C82.226,4.423 82.226,3.926 82.576,3.578L84.475,1.69C84.825,1.342 85.325,1.342 85.675,1.69L87.525,3.529C87.875,3.876 87.875,4.373 87.525,4.721C87.174,5.069 86.674,5.069 86.325,4.721L85.075,3.479L83.775,4.771C83.625,4.97 83.375,5.02 83.175,5.02Z" style="fill-rule:nonzero;"/>
</svg>
